<svg width="388.801" height="86.4" viewBox="0 0 388.801 86.4" xmlns="http://www.w3.org/2000/svg"><g id="svgGroup" stroke-linecap="round" fill-rule="evenodd" font-size="9pt" stroke="#000000" stroke-width="1mm" fill="#000000" style="stroke:#000000;stroke-width:1mm;fill:#000000"><path d="M 142.8 29.6 L 142.8 30 L 147.7 7 L 162.5 5 L 151 59 Q 150.6 60.5 150.6 62.2 Q 150.6 63.36 150.92 64.133 A 2.476 2.476 0 0 0 151.55 65.05 A 2.759 2.759 0 0 0 152.416 65.56 Q 153.219 65.866 154.428 65.897 A 10.79 10.79 0 0 0 154.7 65.9 A 5.961 5.961 0 0 0 158.883 64.199 A 8.492 8.492 0 0 0 159.55 63.5 Q 161.328 61.419 162.466 58.134 A 25.749 25.749 0 0 0 162.8 57.1 A 66.029 66.029 0 0 0 162.729 57.462 Q 162 61.214 162 63.6 A 21.244 21.244 0 0 0 162.102 65.721 Q 162.282 67.519 162.785 68.99 A 9.385 9.385 0 0 0 164.95 72.6 A 9.634 9.634 0 0 0 169.169 75.124 A 12.469 12.469 0 0 0 172.7 75.6 A 15.128 15.128 0 0 0 175.604 75.319 A 16.972 16.972 0 0 0 180.35 73.6 A 13.344 13.344 0 0 0 182.887 71.812 Q 184.135 70.711 185.341 69.196 A 31.849 31.849 0 0 0 187.5 66.1 Q 187.738 68.34 188.442 70.058 A 8.854 8.854 0 0 0 190.55 73.2 A 8.545 8.545 0 0 0 194.536 75.29 A 12.513 12.513 0 0 0 197.4 75.6 Q 202.9 75.6 208.35 71.75 Q 213.8 67.9 217.5 57.1 L 213.3 57.1 L 224 7 L 238.8 5 L 227.3 59 Q 226.9 60.5 226.9 62.2 Q 226.9 63.36 227.22 64.133 A 2.476 2.476 0 0 0 227.85 65.05 A 2.759 2.759 0 0 0 228.716 65.56 Q 229.519 65.866 230.728 65.897 A 10.79 10.79 0 0 0 231 65.9 A 6.923 6.923 0 0 0 234.799 64.742 A 10.064 10.064 0 0 0 236.4 63.45 A 13.046 13.046 0 0 0 239.176 59.396 A 16.871 16.871 0 0 0 240 57.1 A 66.029 66.029 0 0 0 239.929 57.462 Q 239.2 61.214 239.2 63.6 A 21.244 21.244 0 0 0 239.302 65.721 Q 239.482 67.519 239.985 68.99 A 9.385 9.385 0 0 0 242.15 72.6 A 9.634 9.634 0 0 0 246.369 75.124 A 12.469 12.469 0 0 0 249.9 75.6 A 18.299 18.299 0 0 0 256.614 74.278 A 25.497 25.497 0 0 0 261.4 71.75 Q 265.569 68.983 268.653 62.625 A 49.254 49.254 0 0 0 270.9 57.1 L 266.7 57.1 A 16.871 16.871 0 0 1 265.876 59.396 A 13.046 13.046 0 0 1 263.1 63.45 A 10.064 10.064 0 0 1 261.499 64.742 A 6.923 6.923 0 0 1 257.7 65.9 A 10.79 10.79 0 0 1 257.428 65.897 Q 256.219 65.866 255.416 65.56 A 2.759 2.759 0 0 1 254.55 65.05 A 2.476 2.476 0 0 1 253.92 64.133 Q 253.6 63.36 253.6 62.2 Q 253.6 60.5 254 59 L 265.5 5 L 250.7 7 L 240 57.1 L 244.2 57.1 A 49.254 49.254 0 0 1 241.953 62.625 Q 238.869 68.983 234.7 71.75 A 25.497 25.497 0 0 1 229.914 74.278 A 18.299 18.299 0 0 1 223.2 75.6 A 12.469 12.469 0 0 1 219.669 75.124 A 9.634 9.634 0 0 1 215.45 72.6 A 9.385 9.385 0 0 1 213.285 68.99 Q 212.782 67.519 212.602 65.721 A 21.244 21.244 0 0 1 212.5 63.6 Q 212.5 61.214 213.229 57.462 A 66.029 66.029 0 0 1 213.3 57.1 A 25.749 25.749 0 0 1 212.966 58.134 Q 211.828 61.419 210.05 63.5 A 8.492 8.492 0 0 1 209.383 64.199 A 5.961 5.961 0 0 1 205.2 65.9 A 10.79 10.79 0 0 1 204.928 65.897 Q 203.719 65.866 202.916 65.56 A 2.759 2.759 0 0 1 202.05 65.05 A 2.476 2.476 0 0 1 201.42 64.133 Q 201.1 63.36 201.1 62.2 Q 201.1 60.5 201.5 59 L 208.7 25 L 194.3 25 L 187.5 57.1 A 26.484 26.484 0 0 1 187.053 58.488 Q 186.535 59.955 185.896 61.16 A 13.215 13.215 0 0 1 184.3 63.55 A 8.343 8.343 0 0 1 183.837 64.052 A 5.95 5.95 0 0 1 179.5 65.9 A 4.211 4.211 0 0 1 179.335 65.897 Q 177.081 65.808 176.619 63.271 A 8.255 8.255 0 0 1 176.5 61.8 A 12.514 12.514 0 0 1 176.56 60.603 A 15.985 15.985 0 0 1 176.8 59 L 184 25 L 169.6 25 L 162.8 57.1 L 167 57.1 A 40.933 40.933 0 0 1 163.582 64.721 Q 157.51 75 146.9 75 A 12.454 12.454 0 0 1 143.988 74.678 A 8.754 8.754 0 0 1 140.25 72.8 Q 137.763 70.654 137.131 66.605 A 16.027 16.027 0 0 1 137.1 66.4 A 24.511 24.511 0 0 1 132.02 72.109 A 22.945 22.945 0 0 1 130.85 73 A 14.036 14.036 0 0 1 123.58 75.554 A 17.585 17.585 0 0 1 122.3 75.6 A 13.692 13.692 0 0 1 117.224 74.685 A 12.609 12.609 0 0 1 112.8 71.7 Q 109.935 68.76 109.23 63.319 A 29.775 29.775 0 0 1 109 59.5 A 41.743 41.743 0 0 1 110.138 50.019 A 53.508 53.508 0 0 1 111.95 43.95 A 36.675 36.675 0 0 1 118.006 33.131 A 34.348 34.348 0 0 1 120.75 30.15 Q 126.6 24.5 134.7 24.5 A 19.255 19.255 0 0 1 136.84 24.611 Q 139.129 24.868 140.525 25.72 A 5.271 5.271 0 0 1 140.8 25.9 A 5.04 5.04 0 0 1 142.019 27.077 A 4.208 4.208 0 0 1 142.8 29.6 Z M 68.3 1.4 L 52.6 75 L 38.2 75 L 45.9 38.7 Q 42.525 37.15 39.65 36.348 A 29.369 29.369 0 0 0 39.1 36.2 A 38.716 38.716 0 0 0 34.225 35.281 A 44.65 44.65 0 0 0 32.5 35.1 Q 26.8 47.4 23.15 60.25 A 137.366 137.366 0 0 0 21.265 67.603 Q 19.686 74.619 19.52 79.643 A 34.949 34.949 0 0 0 19.5 80.8 Q 19.5 84.6 20.9 86.4 Q 17.59 86.4 15.001 85.92 A 22.054 22.054 0 0 1 14.4 85.8 A 8.777 8.777 0 0 1 9.883 83.258 A 10.903 10.903 0 0 1 9.55 82.9 A 7.067 7.067 0 0 1 8.195 80.541 Q 7.5 78.594 7.5 75.8 Q 7.5 69.748 10.805 59.942 A 118.914 118.914 0 0 1 11.55 57.8 A 134.137 134.137 0 0 1 19.06 40.794 A 154.852 154.852 0 0 1 22.2 35.1 A 40.254 40.254 0 0 0 19.28 35.376 Q 16.294 35.775 14.3 36.6 A 8.072 8.072 0 0 0 12.474 37.631 A 5.762 5.762 0 0 0 10.5 40.3 A 0.42 0.42 0 0 1 10.747 40.392 Q 11.005 40.58 11.281 41.152 A 5.968 5.968 0 0 1 11.35 41.3 Q 11.8 42.3 11.8 43.4 A 3.16 3.16 0 0 1 10.703 45.867 A 4.321 4.321 0 0 1 10.2 46.25 A 6.174 6.174 0 0 1 8.115 47.106 Q 7.287 47.288 6.329 47.299 A 10.826 10.826 0 0 1 6.2 47.3 Q 3.4 47.3 1.7 45.8 A 4.861 4.861 0 0 1 0.175 43.161 A 7.451 7.451 0 0 1 0 41.5 A 8.441 8.441 0 0 1 1.716 36.417 A 11.499 11.499 0 0 1 2.65 35.3 Q 5.3 32.5 10 30.85 A 29.115 29.115 0 0 1 16.6 29.395 A 36.085 36.085 0 0 1 20.4 29.2 A 37.877 37.877 0 0 1 22.097 29.242 Q 23.651 29.312 25.6 29.5 A 120.553 120.553 0 0 1 33.496 18.356 Q 37.802 12.991 42.344 8.803 A 73.64 73.64 0 0 1 42.95 8.25 A 43.691 43.691 0 0 1 48.308 4.079 Q 54.564 0 60.4 0 A 27.145 27.145 0 0 1 63.631 0.181 Q 65.266 0.377 66.642 0.787 A 13.122 13.122 0 0 1 68.3 1.4 Z M 336.7 42.9 L 329.9 75 L 315.5 75 L 330 7 L 344.8 5 L 339.4 30.2 A 18.22 18.22 0 0 1 343.566 26.68 A 14.331 14.331 0 0 1 351.1 24.6 A 15.036 15.036 0 0 1 354.495 24.962 Q 357.213 25.591 359.11 27.317 A 9.662 9.662 0 0 1 359.2 27.4 A 8.761 8.761 0 0 1 361.53 31.16 Q 362.2 33.206 362.2 35.9 Q 362.2 38.71 361.543 42.129 A 46.208 46.208 0 0 1 361.5 42.35 Q 360.8 45.9 359.5 51 A 175.423 175.423 0 0 0 358.132 56.681 A 160.665 160.665 0 0 0 358.05 57.05 A 40.513 40.513 0 0 0 357.722 58.692 Q 357.446 60.249 357.407 61.351 A 9.904 9.904 0 0 0 357.4 61.7 A 7.151 7.151 0 0 0 357.495 62.902 Q 357.692 64.057 358.3 64.8 A 2.646 2.646 0 0 0 359.383 65.571 Q 359.834 65.754 360.406 65.835 A 7.079 7.079 0 0 0 361.4 65.9 A 6.758 6.758 0 0 0 363.679 65.532 A 5.773 5.773 0 0 0 366.2 63.75 Q 368 61.6 369.8 57.1 L 374 57.1 A 62.897 62.897 0 0 1 371.953 62.432 Q 369.651 67.648 366.969 70.469 A 13.496 13.496 0 0 1 365.45 71.85 A 19.501 19.501 0 0 1 361.296 74.347 A 14.682 14.682 0 0 1 355.4 75.6 A 18.094 18.094 0 0 1 352.065 75.314 Q 348.454 74.635 346.45 72.35 Q 343.6 69.1 343.6 64.3 A 21.173 21.173 0 0 1 343.71 62.211 Q 343.835 60.958 344.1 59.55 Q 344.6 56.9 345.15 54.4 Q 345.684 51.976 345.888 51.244 A 7.505 7.505 0 0 1 345.9 51.2 Q 346.7 47.7 347.4 44.3 A 46.699 46.699 0 0 0 347.769 42.302 Q 348.1 40.244 348.1 38.8 A 10.701 10.701 0 0 0 347.963 37.003 Q 347.413 33.793 344.662 33.703 A 4.913 4.913 0 0 0 344.5 33.7 Q 341.9 33.7 339.9 36.25 A 15.743 15.743 0 0 0 338.201 38.981 Q 337.527 40.341 336.99 41.968 A 28.812 28.812 0 0 0 336.7 42.9 Z M 299.2 29.6 L 299.2 30.3 L 300.3 25 L 314.7 25 L 307.5 59 Q 307.1 60.5 307.1 62.2 A 6.512 6.512 0 0 0 307.296 63.876 Q 307.869 66.019 310.11 66.412 A 6.322 6.322 0 0 0 311.2 66.5 A 5.619 5.619 0 0 0 315.046 64.978 A 8.486 8.486 0 0 0 316.05 63.9 A 15.698 15.698 0 0 0 317.785 61.111 Q 318.471 59.721 319.01 58.055 A 28.82 28.82 0 0 0 319.3 57.1 L 323.5 57.1 Q 319.8 67.9 314.35 71.75 Q 308.9 75.6 303.4 75.6 Q 299.2 75.6 296.65 73.25 Q 294.31 71.093 293.696 67.126 A 17.113 17.113 0 0 1 293.6 66.4 A 30.712 30.712 0 0 1 290.132 70.522 A 24.943 24.943 0 0 1 287.15 73.05 A 13.547 13.547 0 0 1 280.635 75.495 A 17.382 17.382 0 0 1 278.7 75.6 A 13.692 13.692 0 0 1 273.624 74.685 A 12.609 12.609 0 0 1 269.2 71.7 Q 266.335 68.76 265.63 63.319 A 29.775 29.775 0 0 1 265.4 59.5 A 41.743 41.743 0 0 1 266.538 50.019 A 53.508 53.508 0 0 1 268.35 43.95 A 36.675 36.675 0 0 1 274.406 33.131 A 34.348 34.348 0 0 1 277.15 30.15 Q 283 24.5 291.1 24.5 A 19.255 19.255 0 0 1 293.24 24.611 Q 295.529 24.868 296.925 25.72 A 5.271 5.271 0 0 1 297.2 25.9 A 5.04 5.04 0 0 1 298.419 27.077 A 4.208 4.208 0 0 1 299.2 29.6 Z M 65.9 57.1 L 76.6 7 L 91.4 5 L 86.6 27.5 A 37.486 37.486 0 0 1 88.214 26.571 Q 89.765 25.732 90.93 25.337 A 9.457 9.457 0 0 1 91.2 25.25 Q 93 24.7 94.8 24.7 Q 104.647 24.7 106.277 36.607 A 38.441 38.441 0 0 1 106.6 41.8 A 41.002 41.002 0 0 1 105.762 49.863 A 54.319 54.319 0 0 1 103.95 56.55 Q 101.3 64.4 95.15 70 A 21.104 21.104 0 0 1 84.424 75.157 A 29.545 29.545 0 0 1 79.2 75.6 Q 72.4 75.6 68.8 72.25 A 10.922 10.922 0 0 1 65.606 66.588 A 16.64 16.64 0 0 1 65.2 62.8 A 23.093 23.093 0 0 1 65.662 58.123 A 20.93 20.93 0 0 1 65.9 57.1 Z M 293.5 57.1 L 298.3 34.5 A 3.6 3.6 0 0 0 297.91 32.895 A 5.189 5.189 0 0 0 297.3 31.95 A 3.156 3.156 0 0 0 295.673 30.891 Q 295.143 30.736 294.502 30.707 A 6.663 6.663 0 0 0 294.2 30.7 Q 290.766 30.7 287.921 34.128 A 17.036 17.036 0 0 0 287 35.35 A 32.611 32.611 0 0 0 283.843 41.183 A 43.367 43.367 0 0 0 282 46.55 Q 280.569 51.757 280.276 55.984 A 30.572 30.572 0 0 0 280.2 58.1 Q 280.2 62.834 281.5 64.341 A 2.401 2.401 0 0 0 281.65 64.5 Q 283.1 65.9 285.2 65.9 A 5.814 5.814 0 0 0 287.842 65.237 Q 288.676 64.816 289.503 64.129 A 12.146 12.146 0 0 0 290.15 63.55 A 10.833 10.833 0 0 0 292.513 60.143 A 15.414 15.414 0 0 0 293.5 57.1 Z M 137 57.6 L 137 57.1 L 141.9 34.2 A 6.315 6.315 0 0 0 141.295 32.648 Q 140.313 30.921 138.325 30.725 A 5.355 5.355 0 0 0 137.8 30.7 Q 134.366 30.7 131.521 34.128 A 17.036 17.036 0 0 0 130.6 35.35 A 32.611 32.611 0 0 0 127.443 41.183 A 43.367 43.367 0 0 0 125.6 46.55 Q 124.169 51.757 123.876 55.984 A 30.572 30.572 0 0 0 123.8 58.1 Q 123.8 62.834 125.1 64.341 A 2.401 2.401 0 0 0 125.25 64.5 Q 126.7 65.9 128.8 65.9 A 5.83 5.83 0 0 0 131.279 65.32 Q 132.459 64.77 133.65 63.7 Q 136.1 61.5 137 57.6 Z M 85.3 33.6 L 79.8 59 A 10.141 10.141 0 0 0 79.542 60.461 A 8.523 8.523 0 0 0 79.5 61.3 Q 79.5 65.9 84.8 65.9 Q 87.9 65.9 90.6 62.05 Q 93.131 58.441 94.696 53.162 A 44.324 44.324 0 0 0 94.9 52.45 Q 96.5 46.7 96.5 41.4 A 19.105 19.105 0 0 0 96.269 38.348 Q 95.931 36.263 95.1 34.6 Q 93.7 31.8 91.2 31.8 Q 89.7 31.8 87.85 32.25 A 8.135 8.135 0 0 0 86.901 32.539 Q 85.893 32.92 85.386 33.497 A 2.259 2.259 0 0 0 85.3 33.6 Z M 46.8 34.3 L 52.6 7.1 A 18.422 18.422 0 0 0 49.464 9.263 Q 46.64 11.637 43.673 15.619 A 58.55 58.55 0 0 0 43.65 15.65 Q 39.319 21.472 35.204 29.594 A 137.686 137.686 0 0 0 34.6 30.8 Q 41.8 32.2 46.8 34.3 Z M 377.192 74.568 A 7.792 7.792 0 0 0 380.8 75.4 A 9.433 9.433 0 0 0 380.813 75.4 A 7.787 7.787 0 0 0 386.45 73.1 A 9.076 9.076 0 0 0 386.559 72.992 A 7.527 7.527 0 0 0 388.8 67.5 A 9.208 9.208 0 0 0 388.8 67.397 A 7.695 7.695 0 0 0 386.45 61.85 A 9.397 9.397 0 0 0 386.377 61.777 A 7.693 7.693 0 0 0 380.8 59.5 A 9.171 9.171 0 0 0 380.646 59.501 A 7.525 7.525 0 0 0 375.2 61.85 A 9.359 9.359 0 0 0 375.191 61.859 A 7.787 7.787 0 0 0 372.9 67.5 A 9.402 9.402 0 0 0 372.901 67.603 A 7.609 7.609 0 0 0 375.2 73.1 A 7.931 7.931 0 0 0 377.192 74.568 Z"/></g></svg>